<svg version="1.1" id="Layer_1" xmlns="http://www.w3.org/2000/svg" xmlns:xlink="http://www.w3.org/1999/xlink" x="0px" y="0px"
	 width="100%" viewBox="0 0 1024 1024" enable-background="new 0 0 1024 1024" xml:space="preserve">
<path fill="#000000" opacity="1.000000" stroke="none" 
	d="
M139.091354,840.891357 
	C192.098953,828.789001 243.711609,813.238342 295.195862,797.246460 
	C333.981018,785.199097 372.704376,772.952637 411.448273,760.772705 
	C422.306427,757.359253 422.295135,757.323303 422.806854,744.759460 
	C411.246521,742.124329 399.620880,739.347595 388.374969,735.255188 
	C312.783081,707.747314 260.433838,656.651245 232.545654,581.042358 
	C225.585602,562.172668 223.552963,542.294067 222.556091,522.255920 
	C221.030701,491.594086 225.592407,461.907349 235.607712,432.996674 
	C245.212158,405.271942 259.416077,380.197784 279.501312,358.678528 
	C283.722107,354.156372 286.391541,349.311981 287.808533,343.213715 
	C296.738892,304.780243 311.880707,269.075012 336.844910,238.202393 
	C369.292847,198.074921 411.152252,173.749420 462.216034,165.456024 
	C523.618469,155.483521 579.645142,168.110458 629.718567,205.411484 
	C665.914001,232.374420 688.840210,268.936493 702.673035,311.073944 
	C708.288818,328.180420 716.486084,341.653412 729.854675,354.026093 
	C766.604065,388.038116 790.564087,430.050171 800.607239,479.445709 
	C805.406555,503.050629 806.433777,526.897766 804.544373,550.958496 
	C802.350586,578.895569 796.203491,605.804077 785.583923,631.719543 
	C785.047668,633.028198 784.112244,634.403198 784.883240,636.094299 
	C787.088196,637.459412 789.036621,635.929565 790.933899,635.228577 
	C827.796631,621.607849 864.628052,607.902283 901.482666,594.259399 
	C906.760010,592.305847 911.965027,589.991516 917.911926,591.328552 
	C926.389282,593.234497 932.379517,599.443665 933.279846,607.603760 
	C934.354126,617.339661 930.553650,624.418518 921.761353,628.079712 
	C894.698669,639.349243 867.111694,649.259949 839.637329,659.457947 
	C813.568359,669.134277 787.463928,678.715088 761.384827,688.364319 
	C759.711792,688.983337 757.787964,689.241455 756.691895,691.008850 
	C756.591003,692.830994 757.817566,694.069214 758.716248,695.429443 
	C777.240540,723.466675 798.029175,749.751953 822.266907,773.002502 
	C837.649414,787.758545 836.322876,813.805298 814.993347,825.788879 
	C794.185974,837.479187 771.545288,840.579224 748.287842,837.744690 
	C697.416504,831.544861 662.508301,802.756165 638.923401,758.581421 
	C637.054932,755.081604 635.508301,751.358765 632.550659,748.741882 
	C631.130493,748.626953 630.531982,749.441223 630.027893,750.320068 
	C625.373291,758.434631 617.850647,760.275024 609.403076,759.217468 
	C601.901794,758.278320 597.124268,753.533447 594.829590,746.485046 
	C593.534912,742.508301 591.150391,743.035706 588.175842,744.033936 
	C564.349426,752.030212 540.504822,759.972412 516.667908,767.937561 
	C510.196533,770.099976 503.723907,772.259277 497.270020,774.473083 
	C495.391754,775.117432 493.621185,775.736755 493.274689,778.307800 
	C491.159943,793.998535 473.540649,799.554565 461.319672,790.895264 
	C460.788818,790.519165 460.159332,790.282288 459.359863,789.868896 
	C456.357361,792.675842 453.813080,795.997009 449.731262,797.497314 
	C444.503113,799.419128 439.295532,799.861084 434.141663,797.739563 
	C431.149475,796.507874 428.443634,796.696289 425.476868,797.643677 
	C369.823853,815.414612 314.264771,833.492920 258.277771,850.192139 
	C220.642197,861.417603 182.770660,871.812500 144.314163,879.919067 
	C139.757751,880.879517 135.152496,881.546814 130.442322,881.400879 
	C121.134575,881.112366 114.074982,874.840576 112.789688,865.526062 
	C111.384415,855.342041 116.548073,846.400085 125.541122,843.883545 
	C129.854736,842.676331 134.300308,841.940796 139.091354,840.891357 
M318.659668,650.838867 
	C350.655884,681.263489 388.644836,700.169006 431.604370,709.428284 
	C434.750153,710.106323 437.895447,711.191528 441.393463,709.914185 
	C446.984985,707.872375 452.850067,708.325989 458.674103,709.163574 
	C461.602692,709.584778 464.434418,710.473755 467.518433,710.138367 
	C475.838715,709.233398 484.182556,708.558411 491.537964,713.981812 
	C493.115875,715.145264 495.059662,714.812378 496.878113,714.802917 
	C507.872192,714.745789 518.806763,713.845520 529.746277,712.772278 
	C549.139893,710.869812 568.263977,707.465820 587.259399,703.214294 
	C590.051819,702.589294 591.939148,701.462463 592.959656,698.457642 
	C594.971191,692.535400 599.437683,688.822510 605.336609,687.036316 
	C613.298645,684.625305 621.276123,682.217163 629.356689,680.260742 
	C636.039917,678.642639 642.721802,679.160034 648.413330,683.499634 
	C650.889465,685.387634 653.025879,685.406006 655.745117,684.441223 
	C672.064575,678.651306 688.432129,672.997253 704.763367,667.240173 
	C712.865417,664.383972 720.924316,661.405396 729.165100,658.423462 
	C727.803345,655.956238 725.696228,655.628784 723.954468,654.858276 
	C688.453125,639.151672 662.043274,613.987427 644.398621,579.368225 
	C631.309753,553.687439 625.044067,526.385498 623.645020,497.806030 
	C623.314026,491.044830 626.257568,485.901886 632.331726,482.711487 
	C645.143616,475.982147 658.241394,484.128967 659.291016,499.430603 
	C660.134644,511.728302 661.809692,523.905823 665.421692,535.724060 
	C677.906128,576.572266 702.305176,606.896301 742.800110,622.885071 
	C749.097473,625.371460 749.163513,625.292969 751.807861,618.993042 
	C767.746216,581.021362 773.736450,541.605103 767.669617,500.786224 
	C759.176514,443.642731 731.579346,397.712799 684.974426,363.423767 
	C681.644592,360.973877 679.772034,358.216492 678.731628,354.323059 
	C673.741150,335.648010 667.770142,317.311066 659.549438,299.755432 
	C643.618469,265.734131 620.338745,238.403534 587.034851,220.316696 
	C549.178284,199.757370 508.875458,193.896179 466.606018,201.265167 
	C418.711182,209.614868 381.554291,234.585434 354.838562,274.973175 
	C336.036163,303.397949 325.032318,335.098785 317.414551,368.085327 
	C316.765015,370.897797 315.803497,373.290192 313.677856,375.462433 
	C264.494446,425.723633 248.208542,485.803986 262.320770,553.983398 
	C270.176025,591.933960 290.824768,623.270935 318.659668,650.838867 
M669.691711,739.827515 
	C678.399719,756.250488 689.868164,770.416443 705.007568,781.259094 
	C726.648376,796.757812 750.174133,804.377258 776.894714,796.809998 
	C778.937012,796.231567 781.142090,795.971680 782.306152,793.847046 
	C782.027039,792.336731 780.997925,791.454041 780.090637,790.500427 
	C758.699402,768.016602 739.720581,743.597290 721.912109,718.224854 
	C719.068359,714.173279 717.519897,708.002747 713.091919,706.591125 
	C708.703064,705.192017 703.707397,708.995056 698.973145,710.479736 
	C687.270081,714.149841 675.645325,718.069885 663.741699,721.970581 
	C664.481995,728.290894 666.777649,733.771851 669.691711,739.827515 
z"/>
<path fill="#000000" opacity="1.000000" stroke="none" 
	d="
M511.467316,386.225891 
	C505.216919,401.111450 493.842194,411.529358 483.301025,422.604034 
	C481.635101,424.354309 480.287781,424.127197 478.702576,422.512451 
	C469.850586,413.495483 460.342072,405.056885 453.874420,393.964661 
	C448.456146,384.672089 445.039307,374.797852 447.189484,363.973816 
	C450.135864,349.141632 463.363586,339.157257 479.670776,338.815369 
	C496.624512,338.459869 510.541412,348.488190 513.764771,363.826233 
	C515.331909,371.282928 514.468567,378.725006 511.467316,386.225891 
z"/>
<path fill="#000000" opacity="1.000000" stroke="none" 
	d="
M390.139282,331.059814 
	C402.492920,322.628815 417.102539,326.556213 421.170044,339.085419 
	C423.985840,347.759064 420.661255,357.236420 413.225311,361.733154 
	C405.639893,366.320282 395.438782,365.048767 389.371033,358.759827 
	C383.490601,352.665039 382.433472,342.090485 387.043060,334.769196 
	C387.830811,333.518097 388.912354,332.451996 390.139282,331.059814 
z"/>
<path fill="#000000" opacity="1.000000" stroke="none" 
	d="
M567.312744,362.750977 
	C557.087524,366.199280 547.945496,363.409760 543.296936,355.717773 
	C538.565430,347.888489 539.762878,337.207672 546.129211,331.408875 
	C552.171692,325.904968 559.307983,325.229614 566.608582,327.865021 
	C573.847839,330.478333 577.722351,336.235535 578.201599,343.833740 
	C578.728516,352.188171 575.388306,358.688934 567.312744,362.750977 
z"/>
</svg>